<svg width="154" height="96" viewBox="0 0 154 96" fill="none" xmlns="http://www.w3.org/2000/svg">
<g clip-path="url(#clip0_1_343)">
<path d="M98.5048 96H0V15.7003L16.1099 0H98.5048V10.7423H93.5172V4.86076H18.1714L4.98759 17.7094V91.1392H93.5172V85.6304H98.5048V96Z" fill="#00FFB0"/>
<path d="M153.119 64.1296H146.286V70.7889H153.119V64.1296Z" fill="#00FFB0"/>
<path d="M114.565 14.9712H76.8088V23.0725H91.5388V56.239H99.8515V23.0725H114.565V14.9712Z" fill="white"/>
<path d="M71.8212 15.2141H63.5086V49.7417H49.56L45.2042 45.5128V15.2141H36.8915V48.8668L46.1185 57.843H71.8046V50.5194H71.8212V15.2141Z" fill="white"/>
<path d="M150.442 35.3054L154 32.2755V23.9636L144.79 14.9712H121.232V23.0725H141.348L145.687 27.3013V31.6922H135.546V39.7935H145.687V44.1844L141.348 48.4132H121.232V56.5145H144.79L154 47.5383V38.3352L150.442 35.3054Z" fill="white"/>
<path d="M42.7104 70.7887H41.3471V65.9603L38.554 70.7887H37.1076V64.1619H38.4709V68.9902L41.264 64.1619H42.7104V70.7887Z" fill="white"/>
<path d="M44.6888 70.7887V64.1619H46.0686V66.7705H48.7287V64.1619H50.1086V70.7887H48.7287V67.9857H46.0686V70.7887H44.6888Z" fill="white"/>
<path d="M52.0704 69.1684V65.7659L53.0845 64.7776H58.1386L59.1528 65.7659V69.1684L58.1386 70.1568H53.0845L52.0704 69.1684ZM53.4171 65.8793V69.055H57.8061V65.8793H53.4171ZM56.26 70.7887H54.9632V64.1619H56.26V70.7887Z" fill="white"/>
<path d="M61.0979 69.7679V65.1826L62.1453 64.1619H65.6865L66.7339 65.1826V69.7679L65.6865 70.7887H62.1453L61.0979 69.7679ZM62.511 65.3284V69.6059H65.3041V65.3284H62.511Z" fill="white"/>
<path d="M73.9493 65.1826V68.3421L72.9019 69.3629H70.0756V70.7887H68.6957V64.1619H72.9019L73.9493 65.1826ZM70.0756 68.2611H72.5694V65.2474H70.0756V68.2611Z" fill="white"/>
<path d="M75.7448 70.7887V64.1619H77.424L79.0366 67.2241L80.6493 64.1619H82.3284V70.7887H80.9818V65.8469L79.3857 68.8444H78.7207L77.1247 65.8469V70.7887H75.7781H75.7448Z" fill="white"/>
<path d="M83.9244 70.7887L85.5038 64.1619H88.4133L89.9927 70.7887H88.5463L88.2138 69.2657H85.7033L85.3708 70.7887H83.9244ZM85.9195 68.2611H88.0143L87.3326 65.2474H86.6011L85.9195 68.2611Z" fill="white"/>
<path d="M96.9254 64.1619V69.6221H97.5904V72.1173H96.4433V70.7887H91.6053V64.1619H92.9852V69.6221H95.5289V64.1619H96.9088H96.9254Z" fill="white"/>
<path d="M104.773 70.7887H103.409V65.9603L100.616 70.7887H99.1698V64.1619H100.533V68.9902L103.326 64.1619H104.773V70.7887Z" fill="white"/>
<path d="M106.734 69.7679V65.1826L107.782 64.1619H111.323L112.37 65.1826V69.7679L111.323 70.7887H107.782L106.734 69.7679ZM108.147 65.3284V69.6059H110.941V65.3284H108.147Z" fill="white"/>
<path d="M114.332 70.7887V64.1619H115.712V66.7705H118.372V64.1619H119.752V70.7887H118.372V67.9857H115.712V70.7887H114.332Z" fill="white"/>
<path d="M121.747 70.7887V64.1619H123.127V66.7705H125.787V64.1619H127.167V70.7887H125.787V67.9857H123.127V70.7887H121.747Z" fill="white"/>
<path d="M134.548 66.5923V69.7518L133.501 70.7726H129.145V64.1458H130.525V65.5716H133.501L134.548 66.5923ZM133.169 66.6733H130.525V69.687H133.169V66.6733ZM135.363 70.7888V64.162H136.743V70.7888H135.363Z" fill="white"/>
<path d="M138.738 70.7887V64.1619H143.476V65.296H140.118V66.8515H142.994V67.9533H140.118V69.6545H143.576V70.7887H138.738Z" fill="white"/>
<path d="M38.6704 82.1467V76.6865H36.7917V75.5037H41.929V76.6865H40.0503V82.1467H38.6704Z" fill="white"/>
<path d="M43.6081 82.1469V75.52H48.3463V76.6542H44.988V78.2096H47.8642V79.3114H44.988V81.0127H48.4461V82.1469H43.6081Z" fill="white"/>
<path d="M49.826 82.1469L51.422 78.6471L49.9756 75.52H51.4553L52.5692 78.1286H53.2674L54.3813 75.52H55.861L54.4146 78.6471L56.0106 82.1469H54.5143L53.3506 79.3438H52.5027L51.3389 82.1469H49.8426H49.826Z" fill="white"/>
<path d="M57.6066 82.1469V75.52H58.9865V78.1286H61.6465V75.52H63.0264V82.1469H61.6465V79.3438H58.9865V82.1469H57.6066Z" fill="white"/>
<path d="M64.9883 81.1261V76.5408L66.0356 75.52H69.5768L70.6242 76.5408V81.1261L69.5768 82.1469H66.0356L64.9883 81.1261ZM66.4014 76.7028V80.9803H69.1944V76.7028H66.4014Z" fill="white"/>
<path d="M78.1056 75.52V82.1469H76.7257V76.7028H74.8803L73.6666 82.1469H72.2202L73.7664 75.52H78.1056Z" fill="white"/>
<path d="M80.0674 81.1261V76.5408L81.1147 75.52H84.6559L85.7033 76.5408V81.1261L84.6559 82.1469H81.1147L80.0674 81.1261ZM81.4971 76.7028V80.9803H84.2902V76.7028H81.4971Z" fill="white"/>
<path d="M87.6818 82.1469V75.52H92.0376V76.7352H89.0617V82.1469H87.6818Z" fill="white"/>
<path d="M99.2031 82.1469H97.8398V77.3185L95.0467 82.1469H93.6003V75.52H94.9636V80.3484L97.7567 75.52H99.2031V82.1469Z" fill="white"/>
<path d="M106.784 82.1469H105.421V77.3185L102.628 82.1469H101.181V75.52H102.545V80.3484L105.338 75.52H106.784V82.1469Z" fill="white"/>
<path d="M116.444 82.1469H112.021V81.0127H116.045V79.3114H112.952V78.2096H115.845V76.6542H112.154V75.52H116.261L117.275 76.5084V78.242L116.676 78.6795L117.458 79.279V81.1585L116.444 82.1469Z" fill="white"/>
<path d="M118.871 82.1469L120.45 75.52H123.36L124.939 82.1469H123.493L123.143 80.6238H120.633L120.301 82.1469H118.854H118.871ZM120.866 79.6193H122.961L122.279 76.6056H121.547L120.866 79.6193Z" fill="white"/>
<path d="M131.855 76.5084V78.1934L131.323 78.6309L132.055 79.2304V81.1585L131.041 82.1469H126.568V75.52H130.841L131.855 76.5084ZM127.948 78.242H130.459V76.6218H127.948V78.242ZM127.948 81.0613H130.625V79.2304H127.948V81.0613Z" fill="white"/>
<path d="M135.413 82.1467V76.6865H133.534V75.5037H138.672V76.6865H136.793V82.1467H135.413Z" fill="white"/>
<path d="M145.588 76.5408V79.7003L144.54 80.721H141.714V82.1469H140.334V75.52H144.54L145.588 76.5408ZM141.714 79.6355H144.208V76.6218H141.714V79.6355Z" fill="white"/>
<path d="M147.001 82.1469L148.58 75.52H151.49L153.069 82.1469H151.623L151.273 80.6238H148.763L148.431 82.1469H146.984H147.001ZM148.996 79.6193H151.091L150.409 76.6056H149.677L148.996 79.6193Z" fill="white"/>
</g>
<defs>
<clipPath id="clip0_1_343">
<rect width="154" height="96" fill="white"/>
</clipPath>
</defs>
</svg>
