<svg width="193" height="69" viewBox="0 0 193 69" fill="none" xmlns="http://www.w3.org/2000/svg">
<g clip-path="url(#clip0_1_380)">
<path d="M15.5728 34.9854C6.34609 34.9854 0 27.271 0 18.4149C0 7.81681 9.22668 0 19.4331 0C21.8604 0 27.6654 0.307403 27.6654 3.77666C27.5777 4.68423 27.1683 5.53325 26.5249 6.16269C25.8815 6.80678 25.0188 7.18737 24.1122 7.26056C21.4656 7.26056 18.7458 2.34212 14.9586 2.34212C8.91961 2.34212 6.03902 9.3831 6.03902 14.5211C6.03902 24.2848 12.6922 30.4914 20.1642 30.4914C23.0155 30.4329 25.7645 29.3936 27.9433 27.5491L28.8498 28.6763C27.2121 30.6085 25.1796 32.1748 22.8839 33.2581C20.5882 34.3413 18.0878 34.9268 15.5581 34.9561" fill="white"/>
<path d="M58.1091 4.0987V3.33752L67.1018 0L67.9353 0.292765L67.3358 5.82601C71.6494 2.66416 75.8021 0 80.6275 0C89.6933 0 90.1466 7.49477 90.1466 11.9594V25.4412C90.1466 31.6478 90.4537 32.2627 96.0394 33.0824V34.2242H78.4195V33.0824C84.0052 32.248 84.2392 31.3404 84.3123 25.4412V16.7461C84.3123 11.4471 84.5316 3.95232 75.3196 3.95232C73.8866 3.93768 72.4536 4.21581 71.123 4.77206C69.7923 5.32831 68.5933 6.16269 67.6136 7.20201V25.4559C67.6136 31.6625 67.9207 32.2773 73.5064 33.097V34.2388H55.9011V33.097C61.4868 32.2627 61.7208 31.3551 61.7939 25.4559V10.9933C61.7939 7.81681 61.867 6.83605 58.0945 4.0987" fill="white"/>
<path d="M115.165 9.10505L100.645 9.71986C101.479 5.94319 104.052 1.68347 108.366 1.68347C112.358 1.68347 114.493 5.62115 115.165 9.10505ZM100.134 14.9311L100.441 11.1544H122.36C122.389 9.64667 122.096 8.13893 121.511 6.73366C120.927 5.34303 120.064 4.0695 118.967 3.03019C117.871 1.99087 116.569 1.17113 115.151 0.658795C113.732 0.146457 112.212 -0.0731163 110.706 0.0147131C100.499 0.0147131 93.6998 8.41706 93.6998 18.1954C93.6121 20.3472 93.9484 22.499 94.6941 24.5191C95.4399 26.5392 96.595 28.3836 98.0719 29.9499C99.5487 31.5162 101.333 32.7751 103.307 33.6387C105.281 34.5024 107.401 34.9562 109.55 34.9854C112.431 34.8537 115.224 33.9754 117.651 32.4237C120.093 30.8867 122.082 28.7349 123.456 26.2025L122.33 25.3681C121.365 26.8466 120.035 28.0616 118.485 28.8959C116.92 29.7303 115.18 30.1548 113.411 30.1402C111.51 30.1255 109.624 29.701 107.898 28.9106C106.173 28.1201 104.623 26.9637 103.365 25.5291C102.108 24.0946 101.172 22.4112 100.616 20.5814C100.061 18.7516 99.8851 16.834 100.119 14.9311" fill="white"/>
<path d="M135.944 34.9854L125.065 7.9486C123.705 4.69891 122.871 2.12259 118.792 1.88837V0.76123H134.745V1.90301C129.159 2.06403 130.139 4.47934 131.499 8.05107L138.751 26.5977L145.858 9.79302C143.518 3.73279 143.445 2.59101 138.985 1.91765V0.790507H155.157V1.91765C149.484 2.13722 150.244 4.42079 151.166 6.90929L158.579 26.5977C161.606 19.8495 166.899 8.19745 166.899 4.64036C166.899 2.13722 164.56 2.13722 162.659 1.91765V0.790507H175.424V1.91765C171.11 2.22505 169.984 5.25517 168.405 8.66587L156.605 35H155.552L146.56 11.9888L137.113 35H135.973L135.944 34.9854Z" fill="white"/>
<path d="M189.374 9.55874C188.321 6.07484 186.669 1.82975 182.355 1.82975C181.668 1.81512 180.98 1.94686 180.352 2.21035C179.723 2.47384 179.153 2.86907 178.67 3.36677C178.202 3.86447 177.837 4.46464 177.617 5.10872C177.398 5.7528 177.31 6.4408 177.354 7.12879C177.354 14.931 193 14.6968 193 24.4605C193 31.2087 186.581 34.9853 180.454 34.9853C177.164 35.0439 173.947 34.0631 171.242 32.1894L170.642 23.7871L172.383 23.4797C173.45 28.1054 176.009 33.0238 181.375 33.0238C182.165 33.0385 182.94 32.9067 183.656 32.6139C184.387 32.3212 185.045 31.882 185.586 31.3111C186.127 30.7549 186.552 30.0815 186.829 29.3496C187.107 28.6177 187.224 27.8272 187.18 27.0514C187.18 18.4149 171.534 20.1568 171.534 9.32453C171.534 3.42532 177.062 -2.35669e-05 182.428 -2.35669e-05C185.411 -0.0293 188.335 0.848994 190.821 2.50311L191.041 9.2367L189.388 9.52946L189.374 9.55874Z" fill="white"/>
<path fill-rule="evenodd" clip-rule="evenodd" d="M40.9425 16.102C43.3698 16.102 45.3292 14.1405 45.3292 11.7105C45.3292 9.28057 43.3698 7.31905 40.9425 7.31905C38.5152 7.31905 36.5558 9.28057 36.5558 11.7105C36.5558 14.1405 38.5152 16.102 40.9425 16.102ZM43.1358 27.8126C49.1895 27.8126 54.1026 22.8941 54.1026 16.8339C54.1026 10.7737 49.1895 5.85522 43.1358 5.85522C37.0822 5.85522 32.1691 10.7737 32.1691 16.8339C32.1691 22.8941 37.0822 27.8126 43.1358 27.8126Z" fill="#00FFB0"/>
</g>
<path d="M190.69 51.2523C190.609 51.405 190.492 51.4813 190.339 51.4813C190.223 51.4813 190.07 51.4005 189.881 51.2388C189.702 51.0681 189.455 50.884 189.14 50.6864C188.826 50.4798 188.431 50.2912 187.954 50.1205C187.487 49.9498 186.908 49.8645 186.216 49.8645C185.525 49.8645 184.914 49.9633 184.384 50.1609C183.863 50.3585 183.423 50.628 183.064 50.9693C182.713 51.3107 182.444 51.7059 182.255 52.155C182.075 52.6041 181.986 53.0757 181.986 53.5697C181.986 54.2165 182.12 54.7509 182.39 55.1731C182.668 55.5953 183.032 55.9546 183.481 56.251C183.93 56.5474 184.438 56.7989 185.004 57.0055C185.579 57.2031 186.167 57.4007 186.769 57.5984C187.371 57.796 187.954 58.016 188.52 58.2586C189.095 58.4921 189.607 58.7885 190.056 59.1478C190.505 59.5071 190.865 59.9517 191.134 60.4817C191.413 61.0027 191.552 61.6539 191.552 62.4354C191.552 63.2348 191.413 63.9893 191.134 64.699C190.865 65.3996 190.47 66.0104 189.949 66.5314C189.428 67.0523 188.79 67.4655 188.035 67.7709C187.281 68.0674 186.418 68.2156 185.448 68.2156C184.191 68.2156 183.108 67.9955 182.201 67.5554C181.294 67.1062 180.499 66.4954 179.816 65.7229L180.194 65.1301C180.301 64.9954 180.427 64.928 180.571 64.928C180.652 64.928 180.755 64.9819 180.881 65.0897C181.007 65.1975 181.159 65.3322 181.339 65.4939C181.519 65.6466 181.734 65.8173 181.986 66.0059C182.237 66.1855 182.529 66.3562 182.861 66.5179C183.194 66.6706 183.576 66.8008 184.007 66.9086C184.438 67.0164 184.927 67.0703 185.475 67.0703C186.23 67.0703 186.904 66.958 187.496 66.7335C188.089 66.4999 188.588 66.1855 188.992 65.7903C189.405 65.3951 189.72 64.928 189.935 64.3891C190.151 63.8411 190.258 63.2573 190.258 62.6375C190.258 61.9638 190.119 61.4114 189.841 60.9802C189.571 60.5401 189.212 60.1763 188.763 59.8889C188.314 59.5925 187.802 59.3454 187.227 59.1478C186.661 58.9502 186.077 58.7571 185.475 58.5685C184.874 58.3798 184.285 58.1687 183.71 57.9352C183.144 57.7017 182.637 57.4052 182.188 57.0459C181.739 56.6777 181.375 56.224 181.096 55.6851C180.827 55.1372 180.692 54.4545 180.692 53.6371C180.692 52.9994 180.813 52.3841 181.056 51.7912C181.298 51.1984 181.653 50.6774 182.12 50.2283C182.587 49.7702 183.162 49.4064 183.845 49.1369C184.537 48.8585 185.323 48.7192 186.203 48.7192C187.191 48.7192 188.076 48.8764 188.857 49.1908C189.648 49.5052 190.366 49.9858 191.013 50.6325L190.69 51.2523Z" fill="white"/>
<path d="M176.978 48.9348V50.0801H166.94V57.787H175.294V58.9053H166.94V66.8547H176.978V68H165.553V48.9348H176.978Z" fill="white"/>
<path d="M160.456 64.7933C160.546 64.7933 160.622 64.8247 160.685 64.8876L161.224 65.4669C160.829 65.8891 160.398 66.2709 159.931 66.6122C159.464 66.9446 158.952 67.232 158.395 67.4745C157.847 67.7081 157.241 67.8877 156.576 68.0135C155.92 68.1482 155.197 68.2156 154.407 68.2156C153.086 68.2156 151.874 67.9865 150.769 67.5284C149.673 67.0613 148.73 66.4056 147.939 65.5613C147.158 64.7079 146.547 63.6794 146.107 62.4758C145.667 61.2722 145.447 59.9338 145.447 58.4607C145.447 57.0145 145.671 55.6941 146.12 54.4994C146.578 53.3048 147.216 52.2808 148.034 51.4274C148.86 50.5651 149.844 49.9004 150.984 49.4333C152.134 48.9573 153.401 48.7192 154.784 48.7192C155.476 48.7192 156.109 48.7731 156.684 48.8809C157.259 48.9797 157.793 49.1279 158.287 49.3256C158.79 49.5142 159.262 49.7522 159.702 50.0397C160.142 50.3271 160.573 50.6594 160.995 51.0367L160.578 51.643C160.506 51.7508 160.393 51.8047 160.241 51.8047C160.16 51.8047 160.057 51.7598 159.931 51.67C159.805 51.5712 159.643 51.4544 159.446 51.3196C159.257 51.1759 159.024 51.0232 158.745 50.8615C158.476 50.6909 158.152 50.5382 157.775 50.4034C157.398 50.2597 156.962 50.143 156.468 50.0531C155.974 49.9543 155.413 49.9049 154.784 49.9049C153.625 49.9049 152.561 50.107 151.591 50.5112C150.621 50.9065 149.785 51.4768 149.085 52.2224C148.384 52.9589 147.836 53.8572 147.441 54.9171C147.055 55.968 146.861 57.1492 146.861 58.4607C146.861 59.808 147.055 61.0117 147.441 62.0716C147.827 63.1315 148.361 64.0298 149.044 64.7663C149.727 65.4939 150.531 66.0553 151.456 66.4505C152.39 66.8368 153.401 67.0299 154.487 67.0299C155.17 67.0299 155.776 66.985 156.306 66.8952C156.845 66.8053 157.339 66.6706 157.788 66.4909C158.238 66.3113 158.655 66.0912 159.042 65.8307C159.428 65.5702 159.81 65.2648 160.187 64.9145C160.232 64.8786 160.272 64.8517 160.308 64.8337C160.353 64.8067 160.402 64.7933 160.456 64.7933Z" fill="white"/>
<path d="M126.911 48.9348C127.037 48.9348 127.135 48.9528 127.207 48.9887C127.279 49.0157 127.355 49.083 127.436 49.1908L139.778 65.7095C139.751 65.44 139.738 65.1795 139.738 64.928V48.9348H140.95V68H140.29C140.084 68 139.917 67.9102 139.792 67.7305L127.396 51.1849C127.423 51.4544 127.436 51.7104 127.436 51.9529V68H126.237V48.9348H126.911Z" fill="white"/>
<path d="M121.742 48.9348V50.0801H111.704V57.787H120.058V58.9053H111.704V66.8547H121.742V68H110.316V48.9348H121.742Z" fill="white"/>
<path d="M95.0947 59.3769V68H93.7204V48.9348H98.5844C100.785 48.9348 102.429 49.3615 103.516 50.2148C104.603 51.0592 105.146 52.3032 105.146 53.947C105.146 54.6746 105.02 55.3393 104.769 55.9411C104.517 56.5429 104.153 57.0729 103.677 57.531C103.21 57.9801 102.644 58.3529 101.98 58.6493C101.315 58.9367 100.565 59.1254 99.7296 59.2152C99.9452 59.3499 100.138 59.5296 100.309 59.7541L106.871 68H105.672C105.528 68 105.402 67.973 105.294 67.9191C105.195 67.8652 105.097 67.7754 104.998 67.6497L98.8943 59.9158C98.7416 59.7182 98.5754 59.579 98.3957 59.4981C98.2251 59.4173 97.9556 59.3769 97.5873 59.3769H95.0947ZM95.0947 58.3529H98.4092C99.2536 58.3529 100.008 58.2541 100.673 58.0565C101.346 57.8499 101.912 57.5579 102.37 57.1807C102.838 56.8034 103.192 56.3498 103.435 55.8198C103.677 55.2899 103.799 54.6925 103.799 54.0278C103.799 52.6715 103.354 51.6655 102.465 51.0098C101.576 50.354 100.282 50.0262 98.5844 50.0262H95.0947V58.3529Z" fill="white"/>
<path d="M88.8208 48.9348V50.0801H78.783V57.787H87.1366V58.9053H78.783V66.8547H88.8208V68H77.3952V48.9348H88.8208Z" fill="white"/>
<path d="M73.3999 48.9348V50.0801H63.362V58.0969H72.0525V59.2421H63.362V68H61.9742V48.9348H73.3999Z" fill="white"/>
<path d="M42.2796 48.9348C42.4053 48.9348 42.5041 48.9528 42.576 48.9887C42.6479 49.0157 42.7242 49.083 42.805 49.1908L55.1469 65.7095C55.1199 65.44 55.1065 65.1795 55.1065 64.928V48.9348H56.3191V68H55.6589C55.4523 68 55.2861 67.9102 55.1604 67.7305L42.7646 51.1849C42.7916 51.4544 42.805 51.7104 42.805 51.9529V68H41.6059V48.9348H42.2796Z" fill="white"/>
<path d="M37.1098 58.4607C37.1098 59.9338 36.8897 61.2722 36.4495 62.4758C36.0094 63.6705 35.3896 64.6945 34.5902 65.5478C33.7907 66.3921 32.8341 67.0479 31.7203 67.5149C30.6065 67.973 29.3714 68.2021 28.0151 68.2021C26.6767 68.2021 25.4506 67.973 24.3368 67.5149C23.2229 67.0479 22.2663 66.3921 21.4669 65.5478C20.6674 64.6945 20.0432 63.6705 19.594 62.4758C19.1539 61.2722 18.9338 59.9338 18.9338 58.4607C18.9338 56.9965 19.1539 55.6671 19.594 54.4725C20.0432 53.2688 20.6674 52.2448 21.4669 51.4005C22.2663 50.5472 23.2229 49.887 24.3368 49.4199C25.4506 48.9528 26.6767 48.7192 28.0151 48.7192C29.3714 48.7192 30.6065 48.9528 31.7203 49.4199C32.8341 49.878 33.7907 50.5337 34.5902 51.387C35.3896 52.2403 36.0094 53.2688 36.4495 54.4725C36.8897 55.6671 37.1098 56.9965 37.1098 58.4607ZM35.6815 58.4607C35.6815 57.1313 35.4974 55.9366 35.1291 54.8767C34.7608 53.8168 34.2399 52.9185 33.5662 52.182C32.9015 51.4454 32.0976 50.884 31.1544 50.4978C30.2113 50.1025 29.1648 49.9049 28.0151 49.9049C26.8833 49.9049 25.8458 50.1025 24.9027 50.4978C23.9685 50.884 23.1601 51.4454 22.4774 52.182C21.8037 52.9185 21.2782 53.8168 20.901 54.8767C20.5327 55.9366 20.3486 57.1313 20.3486 58.4607C20.3486 59.799 20.5327 60.9982 20.901 62.0581C21.2782 63.1091 21.8037 64.0028 22.4774 64.7394C23.1601 65.4759 23.9685 66.0373 24.9027 66.4236C25.8458 66.8098 26.8833 67.0029 28.0151 67.0029C29.1648 67.0029 30.2113 66.8098 31.1544 66.4236C32.0976 66.0373 32.9015 65.4759 33.5662 64.7394C34.2399 64.0028 34.7608 63.1091 35.1291 62.0581C35.4974 60.9982 35.6815 59.799 35.6815 58.4607Z" fill="white"/>
<path d="M15.0096 64.7933C15.0994 64.7933 15.1758 64.8247 15.2387 64.8876L15.7776 65.4669C15.3824 65.8891 14.9512 66.2709 14.4841 66.6122C14.0171 66.9446 13.5051 67.232 12.9481 67.4745C12.4002 67.7081 11.7939 67.8877 11.1292 68.0135C10.4735 68.1482 9.75041 68.2156 8.95996 68.2156C7.63954 68.2156 6.42692 67.9865 5.32208 67.5284C4.22623 67.0613 3.28307 66.4056 2.49262 65.5613C1.71115 64.7079 1.10035 63.6794 0.660207 62.4758C0.220069 61.2722 0 59.9338 0 58.4607C0 57.0145 0.22456 55.6941 0.673681 54.4994C1.13178 53.3048 1.76954 52.2808 2.58694 51.4274C3.41332 50.5651 4.39689 49.9004 5.53766 49.4333C6.68741 48.9573 7.95393 48.7192 9.33722 48.7192C10.0289 48.7192 10.6621 48.7731 11.237 48.8809C11.8119 48.9797 12.3463 49.1279 12.8404 49.3256C13.3434 49.5142 13.8149 49.7522 14.2551 50.0397C14.6952 50.3271 15.1264 50.6594 15.5486 51.0367L15.1309 51.643C15.059 51.7508 14.9467 51.8047 14.794 51.8047C14.7132 51.8047 14.6099 51.7598 14.4841 51.67C14.3584 51.5712 14.1967 51.4544 13.9991 51.3196C13.8105 51.1759 13.5769 51.0232 13.2985 50.8615C13.029 50.6909 12.7056 50.5382 12.3284 50.4034C11.9511 50.2597 11.5155 50.143 11.0214 50.0531C10.5274 49.9543 9.96599 49.9049 9.33722 49.9049C8.17849 49.9049 7.11407 50.107 6.14397 50.5112C5.17387 50.9065 4.33851 51.4768 3.63788 52.2224C2.93725 52.9589 2.38932 53.8572 1.9941 54.9171C1.60785 55.968 1.41473 57.1492 1.41473 58.4607C1.41473 59.808 1.60785 61.0117 1.9941 62.0716C2.38034 63.1315 2.91479 64.0298 3.59746 64.7663C4.28012 65.4939 5.08405 66.0553 6.00923 66.4505C6.94341 66.8368 7.95393 67.0299 9.0408 67.0299C9.72346 67.0299 10.3298 66.985 10.8597 66.8952C11.3987 66.8053 11.8927 66.6706 12.3418 66.4909C12.791 66.3113 13.2086 66.0912 13.5949 65.8307C13.9811 65.5702 14.3629 65.2648 14.7401 64.9145C14.7851 64.8786 14.8255 64.8517 14.8614 64.8337C14.9063 64.8067 14.9557 64.7933 15.0096 64.7933Z" fill="white"/>
<defs>
<clipPath id="clip0_1_380">
<rect width="193" height="35" fill="white"/>
</clipPath>
</defs>
</svg>
